<?xml version="1.0" encoding="UTF-8"?>
<!DOCTYPE svg PUBLIC "-//W3C//DTD SVG 1.1//EN" "http://www.w3.org/Graphics/SVG/1.1/DTD/svg11.dtd">
<svg xmlns="http://www.w3.org/2000/svg" version="1.1" width="580px" height="200px" style="shape-rendering:geometricPrecision; text-rendering:geometricPrecision; image-rendering:optimizeQuality; fill-rule:evenodd; clip-rule:evenodd" xmlns:xlink="http://www.w3.org/1999/xlink">
<g><path style="opacity:0.494" fill="#27356b" d="M 319.5,27.5 C 320.303,31.317 319.637,34.9836 317.5,38.5C 317.751,34.7512 318.417,31.0845 319.5,27.5 Z"/></g>
<g><path style="opacity:0.612" fill="#1748a0" d="M 273.5,33.5 C 270.533,33.0023 267.533,32.669 264.5,32.5C 257.245,33.938 249.912,34.6046 242.5,34.5C 250.65,32.7688 258.983,31.4355 267.5,30.5C 269.78,31.1359 271.78,32.1359 273.5,33.5 Z"/></g>
<g><path style="opacity:1" fill="#026bf7" d="M 319.5,27.5 C 318.417,31.0845 317.751,34.7512 317.5,38.5C 315.743,39.292 314.409,40.6253 313.5,42.5C 307.503,45.2499 301.17,46.9166 294.5,47.5C 293.833,47.5 293.5,47.8333 293.5,48.5C 294.035,50.4456 295.368,51.4456 297.5,51.5C 302.769,54.9223 307.936,58.589 313,62.5C 317.873,55.9236 322.373,49.0903 326.5,42C 331.546,39.9846 336.546,40.1513 341.5,42.5C 342.298,42.9569 342.631,43.6236 342.5,44.5C 342.665,48.1817 342.499,51.8484 342,55.5C 339.129,56.965 337.629,59.2983 337.5,62.5C 336.5,62.5 335.5,62.5 334.5,62.5C 334.007,64.8056 333.674,67.139 333.5,69.5C 330.345,69.9842 328.012,71.6509 326.5,74.5C 325.571,73.3112 325.238,71.9778 325.5,70.5C 322.495,70.2501 320.662,71.5834 320,74.5C 319.667,74.1667 319.333,73.8333 319,73.5C 317.913,75.7518 316.079,77.0851 313.5,77.5C 313.709,78.086 314.043,78.586 314.5,79C 312.5,79.3333 310.5,79.6667 308.5,80C 307.167,80.6667 307.167,81.3333 308.5,82C 308,82.1667 307.5,82.3333 307,82.5C 301.715,79.1081 296.548,75.4414 291.5,71.5C 289.684,70.2651 288.017,70.2651 286.5,71.5C 286.068,72.7095 285.401,73.7095 284.5,74.5C 283.624,74.3691 282.957,74.7025 282.5,75.5C 281.014,77.3016 280.014,79.3016 279.5,81.5C 278.178,81.33 277.011,81.6634 276,82.5C 275.505,84.4727 275.338,86.4727 275.5,88.5C 274.772,90.7346 273.439,92.5679 271.5,94C 272.901,94.4101 274.234,94.9101 275.5,95.5C 275.611,96.1174 275.944,96.6174 276.5,97C 281.183,96.506 284.517,98.3394 286.5,102.5C 287.784,101.415 289.284,100.748 291,100.5C 294.489,101.276 297.989,101.942 301.5,102.5C 302.833,103.167 303.833,104.167 304.5,105.5C 304.63,109.525 305.63,113.191 307.5,116.5C 308.434,117.568 308.768,118.901 308.5,120.5C 313.396,122.446 318.729,123.113 324.5,122.5C 325.993,123.312 326.66,124.645 326.5,126.5C 326.272,128.207 325.938,129.874 325.5,131.5C 323.823,135.545 323.156,139.878 323.5,144.5C 323.5,144.833 323.5,145.167 323.5,145.5C 322.015,154.683 320.015,163.85 317.5,173C 307.938,173.225 298.438,174.059 289,175.5C 285.814,175.256 282.647,174.923 279.5,174.5C 273.147,172.98 269.314,168.98 268,162.5C 267.959,149.073 269.126,135.739 271.5,122.5C 273.199,122.66 274.866,122.494 276.5,122C 266.751,119.646 257.084,117.146 247.5,114.5C 241.824,112.942 236.491,110.608 231.5,107.5C 231.5,107.167 231.5,106.833 231.5,106.5C 230.704,101.184 230.037,95.8506 229.5,90.5C 229.491,88.6916 229.991,87.0249 231,85.5C 235.423,79.6454 239.59,73.6454 243.5,67.5C 245.017,67.4894 246.184,66.8228 247,65.5C 249.465,61.5627 251.632,57.5627 253.5,53.5C 246.398,53.2512 239.398,53.9178 232.5,55.5C 232.5,56.8333 232.5,58.1667 232.5,59.5C 231.5,59.5 230.5,59.5 229.5,59.5C 228.495,63.3472 226.495,66.6805 223.5,69.5C 222.579,71.7765 221.913,74.1099 221.5,76.5C 220.758,78.4258 219.758,80.2591 218.5,82C 213.833,82.6667 209.167,82.6667 204.5,82C 203.619,81.2917 202.953,80.4584 202.5,79.5C 201.671,76.5314 201.505,73.5314 202,70.5C 204.575,67.1782 206.409,63.5115 207.5,59.5C 209.216,57.7917 211.216,56.4584 213.5,55.5C 214.374,53.2534 214.708,50.9201 214.5,48.5C 216.219,44.6099 218.552,41.1099 221.5,38C 228.344,35.8643 235.344,34.6977 242.5,34.5C 249.912,34.6046 257.245,33.938 264.5,32.5C 267.533,32.669 270.533,33.0023 273.5,33.5C 275.062,33.7329 276.395,34.3995 277.5,35.5C 279.391,37.4782 281.391,39.4782 283.5,41.5C 283.833,41.3333 284.167,41.1667 284.5,41C 282.753,34.3232 282.087,27.4899 282.5,20.5C 283.423,17.1617 285.423,14.6617 288.5,13C 300.436,7.27572 310.27,9.77572 318,20.5C 319.291,22.8439 319.791,25.1772 319.5,27.5 Z M 292.5,139.5 C 294.189,144.815 297.856,146.815 303.5,145.5C 304.491,153.006 301.324,157.673 294,159.5C 291.429,158.75 289.262,157.417 287.5,155.5C 287.633,148.253 288.133,141.253 289,134.5C 289.333,134.167 289.667,133.833 290,133.5C 290.24,135.852 291.073,137.852 292.5,139.5 Z"/></g>
<g><path style="opacity:0.937" fill="#274592" d="M 282.5,20.5 C 282.087,27.4899 282.753,34.3232 284.5,41C 284.167,41.1667 283.833,41.3333 283.5,41.5C 281.391,39.4782 279.391,37.4782 277.5,35.5C 278.721,36.0283 279.887,36.695 281,37.5C 281.021,34.7111 280.854,31.8777 280.5,29C 280.36,25.8502 281.027,23.0169 282.5,20.5 Z"/></g>
<g><path style="opacity:1" fill="#1660c8" d="M 317.5,38.5 C 316.008,43.4901 312.674,46.6567 307.5,48C 303.5,48.3333 299.5,48.6667 295.5,49C 296.381,49.7083 297.047,50.5416 297.5,51.5C 295.368,51.4456 294.035,50.4456 293.5,48.5C 294.167,48.5 294.5,48.1667 294.5,47.5C 301.17,46.9166 307.503,45.2499 313.5,42.5C 314.409,40.6253 315.743,39.292 317.5,38.5 Z"/></g>
<g><path style="opacity:1" fill="#175ebe" d="M 214.5,48.5 C 214.708,50.9201 214.374,53.2534 213.5,55.5C 211.216,56.4584 209.216,57.7917 207.5,59.5C 209.587,55.6559 211.92,51.9893 214.5,48.5 Z"/></g>
<g><path style="opacity:1" fill="#2060bf" d="M 243.5,67.5 C 246.034,63.6084 248.7,59.7751 251.5,56C 244.773,55.4615 238.439,56.6281 232.5,59.5C 232.5,58.1667 232.5,56.8333 232.5,55.5C 239.398,53.9178 246.398,53.2512 253.5,53.5C 251.632,57.5627 249.465,61.5627 247,65.5C 246.184,66.8228 245.017,67.4894 243.5,67.5 Z"/></g>
<g><path style="opacity:1" fill="#1357b4" d="M 342.5,44.5 C 343.117,44.6107 343.617,44.944 344,45.5C 344.667,48.8333 344.667,52.1667 344,55.5C 340.637,60.3504 337.137,65.0171 333.5,69.5C 333.674,67.139 334.007,64.8056 334.5,62.5C 335.5,62.5 336.5,62.5 337.5,62.5C 337.629,59.2983 339.129,56.965 342,55.5C 342.499,51.8484 342.665,48.1817 342.5,44.5 Z"/></g>
<g><path style="opacity:0.973" fill="#205aae" d="M 232.5,59.5 C 229.193,65.4586 225.527,71.1253 221.5,76.5C 221.913,74.1099 222.579,71.7765 223.5,69.5C 226.495,66.6805 228.495,63.3472 229.5,59.5C 230.5,59.5 231.5,59.5 232.5,59.5 Z"/></g>
<g><path style="opacity:1" fill="#0f6ae5" d="M 333.5,69.5 C 330.748,74.1004 327.748,78.6004 324.5,83C 317.204,87.6598 309.871,87.6598 302.5,83C 297.637,78.4122 292.304,74.5788 286.5,71.5C 288.017,70.2651 289.684,70.2651 291.5,71.5C 296.548,75.4414 301.715,79.1081 307,82.5C 307.5,82.3333 308,82.1667 308.5,82C 307.167,81.3333 307.167,80.6667 308.5,80C 310.5,79.6667 312.5,79.3333 314.5,79C 314.043,78.586 313.709,78.086 313.5,77.5C 316.079,77.0851 317.913,75.7518 319,73.5C 319.333,73.8333 319.667,74.1667 320,74.5C 320.662,71.5834 322.495,70.2501 325.5,70.5C 325.238,71.9778 325.571,73.3112 326.5,74.5C 328.012,71.6509 330.345,69.9842 333.5,69.5 Z"/></g>
<g><path style="opacity:0.808" fill="#1051ad" d="M 207.5,59.5 C 206.409,63.5115 204.575,67.1782 202,70.5C 201.505,73.5314 201.671,76.5314 202.5,79.5C 199.764,77.1421 198.93,74.1421 200,70.5C 201.582,66.106 204.082,62.4393 207.5,59.5 Z"/></g>
<g><path style="opacity:1" fill="#1f5ebb" d="M 284.5,74.5 C 282.281,79.7091 279.281,84.3757 275.5,88.5C 275.338,86.4727 275.505,84.4727 276,82.5C 277.011,81.6634 278.178,81.33 279.5,81.5C 280.014,79.3016 281.014,77.3016 282.5,75.5C 282.957,74.7025 283.624,74.3691 284.5,74.5 Z"/></g>
<g><path style="opacity:0.945" fill="#154ea7" d="M 229.5,90.5 C 230.037,95.8506 230.704,101.184 231.5,106.5C 230.685,105.571 229.852,104.571 229,103.5C 228.685,100.628 228.185,97.7952 227.5,95C 227.899,93.2725 228.566,91.7725 229.5,90.5 Z"/></g>
<g><path style="opacity:1" fill="#2256c2" d="M 275.5,95.5 C 284.616,96.6101 293.282,98.9434 301.5,102.5C 297.989,101.942 294.489,101.276 291,100.5C 289.284,100.748 287.784,101.415 286.5,102.5C 284.517,98.3394 281.183,96.506 276.5,97C 275.944,96.6174 275.611,96.1174 275.5,95.5 Z"/></g>
<g><path style="opacity:1" fill="#0a65e9" d="M 346.5,120.5 C 344.5,120.5 342.5,120.5 340.5,120.5C 335.439,119.766 332.772,116.766 332.5,111.5C 332.646,103.852 336.48,100.185 344,100.5C 353.712,100.895 357.379,105.895 355,115.5C 353.326,119.089 350.493,120.755 346.5,120.5 Z"/></g>
<g><path style="opacity:1" fill="#1e48a7" d="M 508.5,116.5 C 508.654,111.985 508.654,107.652 508.5,103.5C 502.848,102.267 497.181,102.267 491.5,103.5C 491.815,107.371 491.482,111.038 490.5,114.5C 489.957,114.44 489.624,114.107 489.5,113.5C 490.262,109.889 490.762,106.222 491,102.5C 491.5,102 492,101.5 492.5,101C 496.879,101.084 501.212,100.918 505.5,100.5C 508.204,100.67 509.871,102.003 510.5,104.5C 509.96,108.661 509.293,112.661 508.5,116.5 Z"/></g>
<g><path style="opacity:1" fill="#0269f9" d="M 508.5,116.5 C 508.195,121.921 507.528,127.255 506.5,132.5C 504.219,145.989 502.219,159.656 500.5,173.5C 497.287,173.19 494.287,173.523 491.5,174.5C 487.526,173.521 483.526,172.521 479.5,171.5C 481.296,171.731 483.129,171.065 485,169.5C 485.388,170.428 486.055,171.095 487,171.5C 488.533,170.305 490.033,170.305 491.5,171.5C 493.059,170.926 494.559,170.26 496,169.5C 496.979,165.327 497.812,161.161 498.5,157C 497.864,151.942 497.698,146.775 498,141.5C 497.667,143.167 497.333,144.833 497,146.5C 496.692,145.692 496.192,145.025 495.5,144.5C 494.915,146.865 493.748,148.865 492,150.5C 492.314,147.454 492.147,144.454 491.5,141.5C 490.522,141.023 489.689,140.357 489,139.5C 488.667,139.833 488.333,140.167 488,140.5C 487.653,136.884 486.486,136.217 484.5,138.5C 482.929,137.691 481.262,137.357 479.5,137.5C 479.389,136.883 479.056,136.383 478.5,136C 476.064,136.053 473.731,135.887 471.5,135.5C 472.912,134.194 474.579,133.36 476.5,133C 474.328,132.276 471.994,131.776 469.5,131.5C 468.359,129.579 468.192,127.579 469,125.5C 469.414,125.043 469.914,124.709 470.5,124.5C 475.203,126.863 480.203,127.697 485.5,127C 482.063,126.351 481.896,125.851 485,125.5C 487.201,126.855 488.868,126.522 490,124.5C 490.498,121.518 490.665,118.518 490.5,115.5C 490.5,115.167 490.5,114.833 490.5,114.5C 491.482,111.038 491.815,107.371 491.5,103.5C 497.181,102.267 502.848,102.267 508.5,103.5C 508.654,107.652 508.654,111.985 508.5,116.5 Z"/></g>
<g><path style="opacity:0.335" fill="#133f8f" d="M 380.5,121.5 C 380.797,117.233 380.464,113.066 379.5,109C 374.5,108.333 369.5,108.333 364.5,109C 363.877,111.607 363.21,114.107 362.5,116.5C 362.5,113.5 362.5,110.5 362.5,107.5C 368.509,107.334 374.509,107.501 380.5,108C 381.823,112.6 381.823,117.1 380.5,121.5 Z"/></g>
<g><path style="opacity:1" fill="#1158b3" d="M 231.5,107.5 C 236.491,110.608 241.824,112.942 247.5,114.5C 241.03,114.465 235.696,112.132 231.5,107.5 Z"/></g>
<g><path style="opacity:0.71" fill="#21438d" d="M 304.5,105.5 C 306.258,108.854 307.258,112.521 307.5,116.5C 305.63,113.191 304.63,109.525 304.5,105.5 Z"/></g>
<g><path style="opacity:0.306" fill="#16499b" d="M 433.5,123.5 C 428.783,122.151 423.95,121.484 419,121.5C 413.3,121.571 407.8,122.571 402.5,124.5C 407.194,121.107 412.527,119.773 418.5,120.5C 423.92,120.061 428.92,121.061 433.5,123.5 Z"/></g>
<g><path style="opacity:0.529" fill="#1c53aa" d="M 106.5,120.5 C 104.438,121.776 102.104,122.61 99.5,123C 93.4781,123.575 87.4781,123.409 81.5,122.5C 89.7368,122.98 98.0701,122.314 106.5,120.5 Z"/></g>
<g><path style="opacity:0.208" fill="#112d5c" d="M 308.5,120.5 C 313.935,121.123 319.268,121.79 324.5,122.5C 318.729,123.113 313.396,122.446 308.5,120.5 Z"/></g>
<g><path style="opacity:0.161" fill="#27233f" d="M 340.5,120.5 C 342.5,120.5 344.5,120.5 346.5,120.5C 346.5,120.833 346.5,121.167 346.5,121.5C 344.585,121.216 342.919,121.549 341.5,122.5C 339.167,122.5 336.833,122.5 334.5,122.5C 336.5,121.833 338.5,121.167 340.5,120.5 Z"/></g>
<g><path style="opacity:1" fill="#0764e5" d="M 251.5,138.5 C 253.575,138.698 255.575,138.865 257.5,139C 256.283,137.352 255.45,135.519 255,133.5C 251.907,134.894 249.241,134.227 247,131.5C 246.506,129.866 246.34,128.199 246.5,126.5C 241.543,126.46 236.876,125.96 232.5,125C 239.421,123.781 246.421,123.114 253.5,123C 246.5,122.333 239.5,122.333 232.5,123C 230.326,125.352 227.659,126.519 224.5,126.5C 227.04,123.393 230.373,121.56 234.5,121C 245.609,119.014 255.943,120.847 265.5,126.5C 266.52,128.432 266.687,130.432 266,132.5C 263.47,135.063 261.303,137.897 259.5,141C 256.354,141.589 253.688,140.755 251.5,138.5 Z"/></g>
<g><path style="opacity:1" fill="#0767f6" d="M 349.5,141.5 C 349.5,142.167 349.5,142.833 349.5,143.5C 347.789,147.881 347.123,152.547 347.5,157.5C 347.33,162.859 346.83,168.192 346,173.5C 344.416,174.861 342.582,175.528 340.5,175.5C 340.389,174.883 340.056,174.383 339.5,174C 335.848,173.501 332.182,173.335 328.5,173.5C 330.17,157.135 332.17,140.802 334.5,124.5C 339.435,123.552 344.435,123.219 349.5,123.5C 349.5,129.5 349.5,135.5 349.5,141.5 Z"/></g>
<g><path style="opacity:1" fill="#0867f1" d="M 179.5,123.5 C 179.502,127.165 180.835,130.165 183.5,132.5C 184.566,134.701 185.233,137.035 185.5,139.5C 185.259,141.898 185.926,143.898 187.5,145.5C 188.29,146.609 188.79,147.942 189,149.5C 193.787,140.09 198.953,130.924 204.5,122C 208.027,121.192 211.36,121.359 214.5,122.5C 216.265,123.461 218.265,123.795 220.5,123.5C 220.968,127.942 219.968,131.942 217.5,135.5C 215.847,138.807 214.18,142.14 212.5,145.5C 210.567,146.642 209.067,148.308 208,150.5C 204.941,155.285 202.441,160.285 200.5,165.5C 196.691,172.446 192.858,179.446 189,186.5C 187.859,188.609 186.359,190.442 184.5,192C 178.833,192.667 173.167,192.667 167.5,192C 165.675,190.534 165.175,188.701 166,186.5C 169.375,180.915 172.875,175.415 176.5,170C 174.807,167.066 173.807,163.899 173.5,160.5C 173.658,157.455 172.991,154.621 171.5,152C 171.833,151.667 172.167,151.333 172.5,151C 170.428,147.858 168.428,144.691 166.5,141.5C 164.072,135.672 162.572,129.672 162,123.5C 162.5,123 163,122.5 163.5,122C 166.167,121.833 168.833,121.667 171.5,121.5C 174.59,121.522 177.257,122.188 179.5,123.5 Z"/></g>
<g><path style="opacity:1" fill="#0368f5" d="M 106.5,120.5 C 112.989,119.554 118.656,121.22 123.5,125.5C 126.221,123.473 129.221,121.973 132.5,121C 138.167,120.333 143.833,120.333 149.5,121C 154.893,122.336 158.559,125.503 160.5,130.5C 161.32,136.797 161.653,143.131 161.5,149.5C 161.5,150.167 161.5,150.833 161.5,151.5C 160.275,152.152 159.608,153.319 159.5,155C 158.805,161.507 158.139,168.007 157.5,174.5C 151.848,173.968 146.181,173.635 140.5,173.5C 140.5,172.167 140.5,170.833 140.5,169.5C 140.216,167.585 140.549,165.919 141.5,164.5C 142.397,158.445 143.397,152.278 144.5,146C 144.964,137.493 141.13,134.326 133,136.5C 132.51,137.793 132.343,139.127 132.5,140.5C 132.167,141.5 131.5,142.167 130.5,142.5C 129.25,142.577 128.417,143.244 128,144.5C 126.971,150.123 126.471,155.79 126.5,161.5C 125.92,165.81 125.586,170.143 125.5,174.5C 119.31,174.823 113.31,174.49 107.5,173.5C 108.542,165.869 109.209,158.202 109.5,150.5C 111.964,144.767 110.464,140.433 105,137.5C 102.213,138.805 99.7132,140.472 97.5,142.5C 96.2502,142.577 95.4169,143.244 95,144.5C 92.9989,150.678 92.1656,157.012 92.5,163.5C 92.5701,167.425 91.9034,171.091 90.5,174.5C 85.1951,173.806 79.8617,173.472 74.5,173.5C 74.5,169.5 74.5,165.5 74.5,161.5C 74.5,161.167 74.5,160.833 74.5,160.5C 77.0237,148.083 78.6903,135.416 79.5,122.5C 80.1667,122.5 80.8333,122.5 81.5,122.5C 87.4781,123.409 93.4781,123.575 99.5,123C 102.104,122.61 104.438,121.776 106.5,120.5 Z"/></g>
<g><path style="opacity:0.863" fill="#1b3e87" d="M 179.5,123.5 C 181.592,126.088 182.925,129.088 183.5,132.5C 180.835,130.165 179.502,127.165 179.5,123.5 Z"/></g>
<g><path style="opacity:1" fill="#0568f5" d="M 380.5,121.5 C 383.685,121.33 387.019,121.663 390.5,122.5C 390.666,127.179 390.499,131.845 390,136.5C 389.283,137.044 388.783,137.711 388.5,138.5C 386.833,138.5 385.167,138.5 383.5,138.5C 382.081,137.549 380.415,137.216 378.5,137.5C 378.5,138.5 378.5,139.5 378.5,140.5C 378.721,143.279 378.388,145.946 377.5,148.5C 376.213,149.871 375.547,151.705 375.5,154C 375.667,155.833 375.833,157.667 376,159.5C 377.915,160.916 379.415,160.582 380.5,158.5C 380.833,158.5 381.167,158.5 381.5,158.5C 383.167,158.5 384.833,158.5 386.5,158.5C 386.5,163.5 386.5,168.5 386.5,173.5C 378.838,174.786 371.172,174.786 363.5,173.5C 361.277,170.907 359.777,167.907 359,164.5C 358.501,159.511 358.334,154.511 358.5,149.5C 358.552,145.802 358.886,142.135 359.5,138.5C 357.265,138.795 355.265,138.461 353.5,137.5C 353.353,132.786 353.686,128.119 354.5,123.5C 357.385,123.806 360.052,123.473 362.5,122.5C 362.5,120.5 362.5,118.5 362.5,116.5C 363.21,114.107 363.877,111.607 364.5,109C 369.5,108.333 374.5,108.333 379.5,109C 380.464,113.066 380.797,117.233 380.5,121.5 Z"/></g>
<g><path style="opacity:0.843" fill="#1b469b" d="M 346.5,121.5 C 348.144,121.286 349.644,121.62 351,122.5C 351.499,126.486 351.666,130.486 351.5,134.5C 350.833,136.833 350.167,139.167 349.5,141.5C 349.5,135.5 349.5,129.5 349.5,123.5C 344.435,123.219 339.435,123.552 334.5,124.5C 332.17,140.802 330.17,157.135 328.5,173.5C 332.182,173.335 335.848,173.501 339.5,174C 340.056,174.383 340.389,174.883 340.5,175.5C 336.232,174.627 331.898,174.294 327.5,174.5C 328.452,158.453 329.952,142.453 332,126.5C 332.48,124.867 333.313,123.534 334.5,122.5C 336.833,122.5 339.167,122.5 341.5,122.5C 343.415,122.784 345.081,122.451 346.5,121.5 Z"/></g>
<g><path style="opacity:0.78" fill="#1e4892" d="M 390.5,122.5 C 391.323,125.977 391.823,129.644 392,133.5C 393.405,132.269 394.571,130.936 395.5,129.5C 395.567,130.959 395.234,132.292 394.5,133.5C 393.85,133.804 393.183,134.137 392.5,134.5C 391.989,136.884 390.989,138.884 389.5,140.5C 389.672,139.508 389.338,138.842 388.5,138.5C 388.783,137.711 389.283,137.044 390,136.5C 390.499,131.845 390.666,127.179 390.5,122.5 Z"/></g>
<g><path style="opacity:0.718" fill="#103884" d="M 362.5,122.5 C 360.052,123.473 357.385,123.806 354.5,123.5C 353.686,128.119 353.353,132.786 353.5,137.5C 352.094,137.027 351.427,136.027 351.5,134.5C 352.378,130.664 353.044,126.664 353.5,122.5C 356.5,122.5 359.5,122.5 362.5,122.5 Z"/></g>
<g><path style="opacity:1" fill="#016bf7" d="M 393.5,166.5 C 390.987,164.467 389.487,161.801 389,158.5C 388.254,152.449 388.421,146.449 389.5,140.5C 390.989,138.884 391.989,136.884 392.5,134.5C 393.183,134.137 393.85,133.804 394.5,133.5C 395.931,133.119 396.764,132.119 397,130.5C 397.75,131.126 398.584,131.626 399.5,132C 398.62,133.356 398.286,134.856 398.5,136.5C 400.92,136.708 403.253,136.374 405.5,135.5C 409.38,135.71 411.047,137.71 410.5,141.5C 416.167,141.5 421.833,141.5 427.5,141.5C 427.715,139.821 427.048,138.821 425.5,138.5C 425.489,136.983 424.823,135.816 423.5,135C 420.833,134.667 418.167,134.333 415.5,134C 416.5,133.5 417.5,133 418.5,132.5C 419.768,133.428 421.101,133.595 422.5,133C 421.804,131.512 422.138,130.012 423.5,128.5C 426.237,130.102 429.237,130.936 432.5,131C 431.833,131.333 431.167,131.667 430.5,132C 435,134.167 436.167,133 434,128.5C 433.586,128.957 433.086,129.291 432.5,129.5C 431.494,124.593 429.994,124.593 428,129.5C 425.426,127.998 422.593,126.998 419.5,126.5C 424.711,123.055 430.045,123.055 435.5,126.5C 436.308,128.925 437.308,131.258 438.5,133.5C 440.718,132.812 442.218,133.812 443,136.5C 443.499,142.491 443.666,148.491 443.5,154.5C 431.833,154.5 420.167,154.5 408.5,154.5C 408.099,161.734 406.765,162.067 404.5,155.5C 404.709,154.914 405.043,154.414 405.5,154C 403.527,153.505 401.527,153.338 399.5,153.5C 398.833,157.5 400.5,159.167 404.5,158.5C 404.215,160.288 404.548,161.955 405.5,163.5C 406.293,163.069 407.127,162.735 408,162.5C 409.895,163.689 411.895,164.689 414,165.5C 414.333,165.167 414.667,164.833 415,164.5C 417.841,165.42 420.674,166.42 423.5,167.5C 419.877,168.968 416.377,170.635 413,172.5C 412.311,171.643 411.478,170.977 410.5,170.5C 408.958,171.747 407.458,171.747 406,170.5C 405.612,171.428 404.945,172.095 404,172.5C 400.604,170.261 397.104,168.261 393.5,166.5 Z M 425.5,138.5 C 425.611,139.117 425.944,139.617 426.5,140C 421.5,140.667 416.5,140.667 411.5,140C 415.783,136.044 420.45,135.544 425.5,138.5 Z"/></g>
<g><path style="opacity:0.953" fill="#2052ad" d="M 141.5,164.5 C 141.579,163.07 141.246,161.736 140.5,160.5C 141.796,154.197 142.629,147.864 143,141.5C 142.32,139.487 140.987,138.154 139,137.5C 136.557,138.03 134.39,139.03 132.5,140.5C 132.343,139.127 132.51,137.793 133,136.5C 141.13,134.326 144.964,137.493 144.5,146C 143.397,152.278 142.397,158.445 141.5,164.5 Z"/></g>
<g><path style="opacity:0.361" fill="#223372" d="M 292.5,139.5 C 291.073,137.852 290.24,135.852 290,133.5C 289.667,133.833 289.333,134.167 289,134.5C 288.133,141.253 287.633,148.253 287.5,155.5C 285.961,146.486 286.627,137.486 289.5,128.5C 291.584,131.831 292.584,135.497 292.5,139.5 Z"/></g>
<g><path style="opacity:0.231" fill="#2b417e" d="M 214.5,122.5 C 216.924,122.192 219.257,122.526 221.5,123.5C 222.246,124.736 222.579,126.07 222.5,127.5C 219.802,132.756 218.802,138.423 219.5,144.5C 218.522,144.189 217.855,143.522 217.5,142.5C 218.766,140.028 218.766,137.694 217.5,135.5C 219.968,131.942 220.968,127.942 220.5,123.5C 218.265,123.795 216.265,123.461 214.5,122.5 Z"/></g>
<g><path style="opacity:0.396" fill="#14306f" d="M 325.5,131.5 C 325.23,136.028 324.563,140.361 323.5,144.5C 323.156,139.878 323.823,135.545 325.5,131.5 Z"/></g>
<g><path style="opacity:0.012" fill="#13101b" d="M 383.5,138.5 C 381.446,138.365 379.779,139.032 378.5,140.5C 378.5,139.5 378.5,138.5 378.5,137.5C 380.415,137.216 382.081,137.549 383.5,138.5 Z"/></g>
<g><path style="opacity:1" fill="#006afa" d="M 460.5,123.5 C 462.527,123.338 464.527,123.505 466.5,124C 467.815,125.395 467.481,126.395 465.5,127C 465.833,127.333 466.167,127.667 466.5,128C 463.549,128.096 460.882,128.929 458.5,130.5C 456.234,133.975 455.568,137.642 456.5,141.5C 458.167,138.833 459.833,138.833 461.5,141.5C 462.72,140.289 463.887,140.289 465,141.5C 464.755,145.554 463.922,149.554 462.5,153.5C 462.833,154.5 463.167,155.5 463.5,156.5C 467.635,158.978 471.968,160.978 476.5,162.5C 475.726,163.711 474.893,163.711 474,162.5C 473.365,163.966 472.531,165.3 471.5,166.5C 472.711,167.72 472.711,168.887 471.5,170C 468.861,171.943 466.194,173.11 463.5,173.5C 458.804,171.161 454.138,168.828 449.5,166.5C 449.5,166.167 449.5,165.833 449.5,165.5C 445.019,154.538 445.519,143.872 451,133.5C 454.371,130.297 457.538,126.964 460.5,123.5 Z"/></g>
<g><path style="opacity:1" fill="#144ca0" d="M 79.5,122.5 C 78.6903,135.416 77.0237,148.083 74.5,160.5C 74.9027,147.532 76.5693,134.865 79.5,122.5 Z"/></g>
<g><path style="opacity:0.635" fill="#29377a" d="M 160.5,130.5 C 161.868,132.418 162.868,134.585 163.5,137C 163.359,141.145 162.692,145.311 161.5,149.5C 161.653,143.131 161.32,136.797 160.5,130.5 Z"/></g>
<g><path style="opacity:1" fill="#0e69ec" d="M 490.5,115.5 C 490.665,118.518 490.498,121.518 490,124.5C 488.868,126.522 487.201,126.855 485,125.5C 481.896,125.851 482.063,126.351 485.5,127C 480.203,127.697 475.203,126.863 470.5,124.5C 469.914,124.709 469.414,125.043 469,125.5C 468.192,127.579 468.359,129.579 469.5,131.5C 471.994,131.776 474.328,132.276 476.5,133C 474.579,133.36 472.912,134.194 471.5,135.5C 473.731,135.887 476.064,136.053 478.5,136C 479.056,136.383 479.389,136.883 479.5,137.5C 481.262,137.357 482.929,137.691 484.5,138.5C 486.486,136.217 487.653,136.884 488,140.5C 488.333,140.167 488.667,139.833 489,139.5C 489.689,140.357 490.522,141.023 491.5,141.5C 492.147,144.454 492.314,147.454 492,150.5C 493.748,148.865 494.915,146.865 495.5,144.5C 496.192,145.025 496.692,145.692 497,146.5C 497.333,144.833 497.667,143.167 498,141.5C 497.698,146.775 497.864,151.942 498.5,157C 497.812,161.161 496.979,165.327 496,169.5C 494.559,170.26 493.059,170.926 491.5,171.5C 490.033,170.305 488.533,170.305 487,171.5C 486.055,171.095 485.388,170.428 485,169.5C 483.129,171.065 481.296,171.731 479.5,171.5C 483.526,172.521 487.526,173.521 491.5,174.5C 482.448,175.884 473.114,176.384 463.5,176C 457.588,174.553 452.921,171.386 449.5,166.5C 454.138,168.828 458.804,171.161 463.5,173.5C 466.194,173.11 468.861,171.943 471.5,170C 472.711,168.887 472.711,167.72 471.5,166.5C 472.531,165.3 473.365,163.966 474,162.5C 474.893,163.711 475.726,163.711 476.5,162.5C 471.968,160.978 467.635,158.978 463.5,156.5C 463.167,155.5 462.833,154.5 462.5,153.5C 463.922,149.554 464.755,145.554 465,141.5C 463.887,140.289 462.72,140.289 461.5,141.5C 459.833,138.833 458.167,138.833 456.5,141.5C 455.568,137.642 456.234,133.975 458.5,130.5C 460.882,128.929 463.549,128.096 466.5,128C 466.167,127.667 465.833,127.333 465.5,127C 467.481,126.395 467.815,125.395 466.5,124C 464.527,123.505 462.527,123.338 460.5,123.5C 465.296,121.238 470.463,119.905 476,119.5C 480.319,120.089 484.319,121.422 488,123.5C 489.061,120.834 489.894,118.167 490.5,115.5 Z M 479.5,137.5 C 487.308,144.07 487.308,150.904 479.5,158C 466.815,160.454 462.648,155.621 467,143.5C 469.555,139.928 472.888,137.595 477,136.5C 477.671,137.252 478.504,137.586 479.5,137.5 Z"/></g>
<g><path style="opacity:0.396" fill="#273969" d="M 185.5,139.5 C 187.074,141.102 187.741,143.102 187.5,145.5C 185.926,143.898 185.259,141.898 185.5,139.5 Z"/></g>
<g><path style="opacity:0.455" fill="#2a448d" d="M 97.5,142.5 C 94.9276,149.379 93.261,156.379 92.5,163.5C 92.1656,157.012 92.9989,150.678 95,144.5C 95.4169,143.244 96.2502,142.577 97.5,142.5 Z"/></g>
<g><path style="opacity:0.498" fill="#244692" d="M 130.5,142.5 C 128.831,148.88 127.497,155.213 126.5,161.5C 126.471,155.79 126.971,150.123 128,144.5C 128.417,143.244 129.25,142.577 130.5,142.5 Z"/></g>
<g><path style="opacity:0.902" fill="#2a4da7" d="M 377.5,148.5 C 377.74,151.579 377.407,154.579 376.5,157.5C 377.325,159.7 378.658,160.034 380.5,158.5C 379.415,160.582 377.915,160.916 376,159.5C 375.833,157.667 375.667,155.833 375.5,154C 375.547,151.705 376.213,149.871 377.5,148.5 Z"/></g>
<g><path style="opacity:1" fill="#1548a2" d="M 166.5,141.5 C 168.428,144.691 170.428,147.858 172.5,151C 172.167,151.333 171.833,151.667 171.5,152C 172.991,154.621 173.658,157.455 173.5,160.5C 170.599,154.473 168.266,148.139 166.5,141.5 Z"/></g>
<g><path style="opacity:0.333" fill="#182c59" d="M 349.5,143.5 C 349.187,148.353 348.521,153.02 347.5,157.5C 347.123,152.547 347.789,147.881 349.5,143.5 Z"/></g>
<g><path style="opacity:1" fill="#1862c8" d="M 222.5,149.5 C 229.349,152.364 236.349,154.697 243.5,156.5C 245.253,160.424 243.92,162.091 239.5,161.5C 236.159,161.164 233.492,159.83 231.5,157.5C 235.351,159.169 239.351,159.669 243.5,159C 243.167,158.667 242.833,158.333 242.5,158C 237.915,156.415 233.248,155.082 228.5,154C 225.894,153.208 223.894,151.708 222.5,149.5 Z"/></g>
<g><path style="opacity:0.333" fill="#2a569b" d="M 212.5,145.5 C 208.988,152.534 204.988,159.201 200.5,165.5C 202.441,160.285 204.941,155.285 208,150.5C 209.067,148.308 210.567,146.642 212.5,145.5 Z"/></g>
<g><path style="opacity:1" fill="#0869eb" d="M 433.5,123.5 C 438.924,126.264 442.591,130.598 444.5,136.5C 444.5,142.833 444.5,149.167 444.5,155.5C 443.167,155.5 441.833,155.5 440.5,155.5C 438.473,155.338 436.473,155.505 434.5,156C 436.683,158.35 439.016,160.517 441.5,162.5C 442.641,164.421 442.808,166.421 442,168.5C 428.075,178.141 413.575,179.307 398.5,172C 396.627,170.296 394.96,168.463 393.5,166.5C 397.104,168.261 400.604,170.261 404,172.5C 404.945,172.095 405.612,171.428 406,170.5C 407.458,171.747 408.958,171.747 410.5,170.5C 411.478,170.977 412.311,171.643 413,172.5C 416.377,170.635 419.877,168.968 423.5,167.5C 420.674,166.42 417.841,165.42 415,164.5C 414.667,164.833 414.333,165.167 414,165.5C 411.895,164.689 409.895,163.689 408,162.5C 407.127,162.735 406.293,163.069 405.5,163.5C 404.548,161.955 404.215,160.288 404.5,158.5C 400.5,159.167 398.833,157.5 399.5,153.5C 401.527,153.338 403.527,153.505 405.5,154C 405.043,154.414 404.709,154.914 404.5,155.5C 406.765,162.067 408.099,161.734 408.5,154.5C 420.167,154.5 431.833,154.5 443.5,154.5C 443.666,148.491 443.499,142.491 443,136.5C 442.218,133.812 440.718,132.812 438.5,133.5C 437.308,131.258 436.308,128.925 435.5,126.5C 430.045,123.055 424.711,123.055 419.5,126.5C 422.593,126.998 425.426,127.998 428,129.5C 429.994,124.593 431.494,124.593 432.5,129.5C 433.086,129.291 433.586,128.957 434,128.5C 436.167,133 435,134.167 430.5,132C 431.167,131.667 431.833,131.333 432.5,131C 429.237,130.936 426.237,130.102 423.5,128.5C 422.138,130.012 421.804,131.512 422.5,133C 421.101,133.595 419.768,133.428 418.5,132.5C 417.5,133 416.5,133.5 415.5,134C 418.167,134.333 420.833,134.667 423.5,135C 424.823,135.816 425.489,136.983 425.5,138.5C 427.048,138.821 427.715,139.821 427.5,141.5C 421.833,141.5 416.167,141.5 410.5,141.5C 411.047,137.71 409.38,135.71 405.5,135.5C 403.253,136.374 400.92,136.708 398.5,136.5C 398.286,134.856 398.62,133.356 399.5,132C 398.584,131.626 397.75,131.126 397,130.5C 396.764,132.119 395.931,133.119 394.5,133.5C 395.234,132.292 395.567,130.959 395.5,129.5C 397.296,127.1 399.63,125.433 402.5,124.5C 407.8,122.571 413.3,121.571 419,121.5C 423.95,121.484 428.783,122.151 433.5,123.5 Z M 425.5,138.5 C 420.45,135.544 415.783,136.044 411.5,140C 416.5,140.667 421.5,140.667 426.5,140C 425.944,139.617 425.611,139.117 425.5,138.5 Z M 410.5,156.5 C 416.013,155.184 421.68,155.184 427.5,156.5C 421.782,160.405 416.115,160.405 410.5,156.5 Z"/></g>
<g><path style="opacity:1" fill="#026cf9" d="M 251.5,138.5 C 247.204,136.335 242.871,136.168 238.5,138C 247.266,139.029 255.099,142.196 262,147.5C 263.009,149.025 263.509,150.692 263.5,152.5C 263.485,158.905 261.485,164.571 257.5,169.5C 256.675,170.386 255.675,170.719 254.5,170.5C 254.5,171.5 254.5,172.5 254.5,173.5C 254.167,173.5 253.833,173.5 253.5,173.5C 242.725,175.1 232.058,174.767 221.5,172.5C 220.492,170.661 218.992,169.328 217,168.5C 216.833,167.5 216.667,166.5 216.5,165.5C 217.637,162.089 218.97,158.755 220.5,155.5C 224.079,155.316 227.413,155.983 230.5,157.5C 230.833,157.5 231.167,157.5 231.5,157.5C 233.492,159.83 236.159,161.164 239.5,161.5C 243.92,162.091 245.253,160.424 243.5,156.5C 236.349,154.697 229.349,152.364 222.5,149.5C 220.75,148.341 219.75,146.674 219.5,144.5C 218.802,138.423 219.802,132.756 222.5,127.5C 223.167,127.167 223.833,126.833 224.5,126.5C 227.659,126.519 230.326,125.352 232.5,123C 239.5,122.333 246.5,122.333 253.5,123C 246.421,123.114 239.421,123.781 232.5,125C 236.876,125.96 241.543,126.46 246.5,126.5C 246.34,128.199 246.506,129.866 247,131.5C 249.241,134.227 251.907,134.894 255,133.5C 255.45,135.519 256.283,137.352 257.5,139C 255.575,138.865 253.575,138.698 251.5,138.5 Z"/></g>
<g><path style="opacity:0.412" fill="#283c88" d="M 381.5,158.5 C 383.265,157.539 385.265,157.205 387.5,157.5C 388.304,163.161 387.97,168.828 386.5,174.5C 382.033,175.264 377.533,175.931 373,176.5C 369.491,176.178 366.325,175.178 363.5,173.5C 371.172,174.786 378.838,174.786 386.5,173.5C 386.5,168.5 386.5,163.5 386.5,158.5C 384.833,158.5 383.167,158.5 381.5,158.5 Z"/></g>
<g><path style="opacity:0.725" fill="#173676" d="M 109.5,150.5 C 109.209,158.202 108.542,165.869 107.5,173.5C 106.848,172.551 106.514,171.385 106.5,170C 107.227,163.315 108.227,156.815 109.5,150.5 Z"/></g>
<g><path style="opacity:0.933" fill="#33519d" d="M 230.5,157.5 C 227.413,155.983 224.079,155.316 220.5,155.5C 218.97,158.755 217.637,162.089 216.5,165.5C 216.667,166.5 216.833,167.5 217,168.5C 218.992,169.328 220.492,170.661 221.5,172.5C 217.062,171.726 214.729,169.06 214.5,164.5C 216.408,160.936 218.408,157.436 220.5,154C 224.566,153.205 227.899,154.372 230.5,157.5 Z"/></g>
<g><path style="opacity:0.839" fill="#1546a1" d="M 161.5,151.5 C 160.911,156.481 160.411,161.481 160,166.5C 159.721,169.457 158.887,172.123 157.5,174.5C 158.139,168.007 158.805,161.507 159.5,155C 159.608,153.319 160.275,152.152 161.5,151.5 Z"/></g>
<g><path style="opacity:0.675" fill="#1c4a97" d="M 460.5,123.5 C 457.538,126.964 454.371,130.297 451,133.5C 445.519,143.872 445.019,154.538 449.5,165.5C 446.642,163.288 445.309,160.288 445.5,156.5C 443.585,156.784 441.919,156.451 440.5,155.5C 441.833,155.5 443.167,155.5 444.5,155.5C 444.5,149.167 444.5,142.833 444.5,136.5C 445.29,137.609 445.79,138.942 446,140.5C 448.522,132.744 453.356,127.077 460.5,123.5 Z"/></g>
<g><path style="opacity:0.992" fill="#1e59b9" d="M 358.5,149.5 C 358.334,154.511 358.501,159.511 359,164.5C 359.777,167.907 361.277,170.907 363.5,173.5C 360.909,172.746 359.076,171.079 358,168.5C 357.18,161.986 357.347,155.653 358.5,149.5 Z"/></g>
<g><path style="opacity:0.82" fill="#25499d" d="M 506.5,132.5 C 505.281,145.634 503.781,158.968 502,172.5C 498.851,174.362 495.351,175.029 491.5,174.5C 494.287,173.523 497.287,173.19 500.5,173.5C 502.219,159.656 504.219,145.989 506.5,132.5 Z"/></g>
<g><path style="opacity:0.918" fill="#2d5bb1" d="M 263.5,152.5 C 265.411,158.92 264.244,164.92 260,170.5C 258.22,171.639 256.386,172.639 254.5,173.5C 254.5,172.5 254.5,171.5 254.5,170.5C 255.675,170.719 256.675,170.386 257.5,169.5C 261.485,164.571 263.485,158.905 263.5,152.5 Z"/></g>
<g><path style="opacity:0.42" fill="#1e4caa" d="M 74.5,161.5 C 74.5,165.5 74.5,169.5 74.5,173.5C 79.8617,173.472 85.1951,173.806 90.5,174.5C 84.6878,174.958 78.6878,174.958 72.5,174.5C 72.838,171.989 72.838,169.655 72.5,167.5C 73.0505,165.343 73.7171,163.343 74.5,161.5 Z"/></g>
<g><path style="opacity:0.49" fill="#0f4baa" d="M 140.5,169.5 C 140.5,170.833 140.5,172.167 140.5,173.5C 146.181,173.635 151.848,173.968 157.5,174.5C 151.67,175.334 145.67,175.334 139.5,174.5C 139.216,172.585 139.549,170.919 140.5,169.5 Z"/></g>
<g><path style="opacity:0.443" fill="#1b4da2" d="M 323.5,145.5 C 322.885,155.272 321.551,164.939 319.5,174.5C 313.681,174.544 307.847,174.544 302,174.5C 294.341,177.07 286.841,177.07 279.5,174.5C 282.647,174.923 285.814,175.256 289,175.5C 298.438,174.059 307.938,173.225 317.5,173C 320.015,163.85 322.015,154.683 323.5,145.5 Z"/></g>
<g><path style="opacity:0.98" fill="#1a61c4" d="M 221.5,172.5 C 232.058,174.767 242.725,175.1 253.5,173.5C 244.811,176.889 235.811,177.389 226.5,175C 224.509,174.626 222.842,173.793 221.5,172.5 Z"/></g>
</svg>
