<?xml version="1.0" encoding="UTF-8"?>
<!DOCTYPE svg PUBLIC "-//W3C//DTD SVG 1.1//EN" "http://www.w3.org/Graphics/SVG/1.1/DTD/svg11.dtd">
<svg xmlns="http://www.w3.org/2000/svg" version="1.1" width="128px" height="128px" style="shape-rendering:geometricPrecision; text-rendering:geometricPrecision; image-rendering:optimizeQuality; fill-rule:evenodd; clip-rule:evenodd" xmlns:xlink="http://www.w3.org/1999/xlink">
<g><path style="opacity:1" fill="#fcfdfe" d="M -0.5,-0.5 C 21.1667,-0.5 42.8333,-0.5 64.5,-0.5C 63.2702,1.29719 62.6036,3.29719 62.5,5.5C 61.8333,8.5 61.1667,11.5 60.5,14.5C 55.2615,13.0862 51.0948,14.7529 48,19.5C 45.4157,27.6578 44.4157,35.9912 45,44.5C 46,45.8333 47,45.8333 48,44.5C 49.1589,39.5311 50.1589,34.5311 51,29.5C 52.1096,27.9632 53.6096,27.2965 55.5,27.5C 54.16,33.8605 52.66,40.1938 51,46.5C 50.3333,51.8333 50.3333,57.1667 51,62.5C 54.0078,66.0029 57.5078,69.0029 61.5,71.5C 59.6538,75.5817 58.9872,79.915 59.5,84.5C 58.8333,85.8333 58.1667,87.1667 57.5,88.5C 56.4313,85.9241 54.7646,83.7574 52.5,82C 52.8333,81.5 53.1667,81 53.5,80.5C 54.5,81.1667 55.5,81.8333 56.5,82.5C 58.1015,79.6622 58.6015,76.6622 58,73.5C 54.7065,70.6888 51.7065,71.0221 49,74.5C 47.951,72.8934 46.451,72.2267 44.5,72.5C 43.9412,76.8526 43.2745,81.186 42.5,85.5C 41.8333,84.8333 41.1667,84.1667 40.5,83.5C 40.6773,79.7657 40.3439,76.0991 39.5,72.5C 38.4324,71.5655 37.099,71.2322 35.5,71.5C 35.7678,73.099 35.4345,74.4324 34.5,75.5C 33.3072,69.824 30.8072,69.1573 27,73.5C 25.9805,72.3128 24.8139,71.3128 23.5,70.5C 21.8273,72.0863 19.8273,72.7529 17.5,72.5C 17.1156,80.8308 16.7823,89.1641 16.5,97.5C 15.5269,99.9479 15.1936,102.615 15.5,105.5C 17.1667,105.5 18.8333,105.5 20.5,105.5C 20.5,101.167 20.5,96.8333 20.5,92.5C 19.9579,88.4557 20.7912,84.789 23,81.5C 23.4997,89.1594 23.6664,96.8261 23.5,104.5C 24.5676,105.434 25.901,105.768 27.5,105.5C 27.5,103.167 27.5,100.833 27.5,98.5C 27.3342,93.8215 27.5008,89.1548 28,84.5C 28.3678,83.09 29.2011,82.09 30.5,81.5C 31.4841,84.4281 31.8174,87.4281 31.5,90.5C 30.5128,95.3054 30.1795,100.305 30.5,105.5C 32.099,105.768 33.4324,105.434 34.5,104.5C 35.3068,98.5362 35.6401,92.5362 35.5,86.5C 36.1667,87.1667 36.8333,87.8333 37.5,88.5C 38.8044,97.8818 38.471,107.215 36.5,116.5C 37.8333,116.5 39.1667,116.5 40.5,116.5C 42.3937,106.136 44.3937,95.8026 46.5,85.5C 47.1667,85.5 47.8333,85.5 48.5,85.5C 48.9642,89.2603 50.6309,92.4269 53.5,95C 53.1667,95.5 52.8333,96 52.5,96.5C 51.2807,95.7366 50.2807,94.7366 49.5,93.5C 46.6737,97.8922 47.0071,102.059 50.5,106C 55.6033,106.377 57.9366,103.877 57.5,98.5C 58.1667,98.5 58.8333,98.5 59.5,98.5C 60.388,107.007 64.0547,108.674 70.5,103.5C 71.1667,103.833 71.8333,104.167 72.5,104.5C 73.5676,105.434 74.901,105.768 76.5,105.5C 76.5,101.167 76.5,96.8333 76.5,92.5C 76.5,89.8333 76.5,87.1667 76.5,84.5C 77.1667,83.5 77.8333,82.5 78.5,81.5C 79.3288,88.6552 79.8288,95.9885 80,103.5C 81.049,105.107 82.549,105.773 84.5,105.5C 85.4682,103.393 85.8016,101.059 85.5,98.5C 85.8333,98.5 86.1667,98.5 86.5,98.5C 87.9281,106.881 91.4281,108.215 97,102.5C 97.5564,100.115 97.3897,97.7819 96.5,95.5C 96.3691,94.6236 96.7025,93.9569 97.5,93.5C 98.1698,95.2914 98.8365,96.9581 99.5,98.5C 100.045,106.632 103.878,108.632 111,104.5C 111.5,94.8391 111.666,85.1724 111.5,75.5C 112.489,70.0247 112.822,64.358 112.5,58.5C 111.167,58.5 109.833,58.5 108.5,58.5C 108.819,63.3633 108.486,68.03 107.5,72.5C 105.131,69.8748 102.965,70.2081 101,73.5C 100.023,75.74 99.523,78.0733 99.5,80.5C 98.8333,80.1667 98.1667,79.8333 97.5,79.5C 98.2579,75.2674 96.5912,72.6007 92.5,71.5C 89.3631,72.3015 87.6964,74.3015 87.5,77.5C 85.7452,72.6012 84.4118,67.6012 83.5,62.5C 82.5,62.5 81.5,62.5 80.5,62.5C 81.069,66.3293 80.4023,69.6627 78.5,72.5C 77.8333,72.5 77.1667,72.5 76.5,72.5C 75.209,72.2627 74.209,72.596 73.5,73.5C 72.8333,73.1667 72.1667,72.8333 71.5,72.5C 70.791,71.596 69.791,71.2627 68.5,71.5C 68.0013,67.5101 67.5013,63.5101 67,59.5C 64.1842,57.6833 61.6842,55.5166 59.5,53C 60.57,48.0587 61.9033,43.2253 63.5,38.5C 65.0186,41.0439 66.352,43.7105 67.5,46.5C 68.6507,47.731 69.8173,47.731 71,46.5C 73.759,37.6726 75.259,28.6726 75.5,19.5C 74.1779,19.33 73.0113,19.6634 72,20.5C 70.8735,24.4648 69.8735,28.4648 69,32.5C 67.027,29.2506 65.6937,25.9172 65,22.5C 66,23.8333 67,23.8333 68,22.5C 71.4704,14.6462 71.3037,6.9795 67.5,-0.5C 87.5,-0.5 107.5,-0.5 127.5,-0.5C 127.5,42.1667 127.5,84.8333 127.5,127.5C 84.8333,127.5 42.1667,127.5 -0.5,127.5C -0.5,84.8333 -0.5,42.1667 -0.5,-0.5 Z"/></g>
<g><path style="opacity:1" fill="#9cc1f4" d="M 62.5,5.5 C 62.6655,9.51383 62.4988,13.5138 62,17.5C 60.9614,16.7562 60.4614,15.7562 60.5,14.5C 61.1667,11.5 61.8333,8.5 62.5,5.5 Z"/></g>
<g><path style="opacity:1" fill="#196ef9" d="M 64.5,-0.5 C 65.5,-0.5 66.5,-0.5 67.5,-0.5C 71.3037,6.9795 71.4704,14.6462 68,22.5C 67,23.8333 66,23.8333 65,22.5C 65.6937,25.9172 67.027,29.2506 69,32.5C 69.8735,28.4648 70.8735,24.4648 72,20.5C 73.0113,19.6634 74.1779,19.33 75.5,19.5C 75.259,28.6726 73.759,37.6726 71,46.5C 69.8173,47.731 68.6507,47.731 67.5,46.5C 66.352,43.7105 65.0186,41.0439 63.5,38.5C 61.9033,43.2253 60.57,48.0587 59.5,53C 61.6842,55.5166 64.1842,57.6833 67,59.5C 67.5013,63.5101 68.0013,67.5101 68.5,71.5C 69.791,71.2627 70.791,71.596 71.5,72.5C 71.2082,82.835 70.8749,93.1683 70.5,103.5C 64.0547,108.674 60.388,107.007 59.5,98.5C 59.5,93.8333 59.5,89.1667 59.5,84.5C 58.9872,79.915 59.6538,75.5817 61.5,71.5C 57.5078,69.0029 54.0078,66.0029 51,62.5C 50.3333,57.1667 50.3333,51.8333 51,46.5C 52.66,40.1938 54.16,33.8605 55.5,27.5C 53.6096,27.2965 52.1096,27.9632 51,29.5C 50.1589,34.5311 49.1589,39.5311 48,44.5C 47,45.8333 46,45.8333 45,44.5C 44.4157,35.9912 45.4157,27.6578 48,19.5C 51.0948,14.7529 55.2615,13.0862 60.5,14.5C 60.4614,15.7562 60.9614,16.7562 62,17.5C 62.4988,13.5138 62.6655,9.51383 62.5,5.5C 62.6036,3.29719 63.2702,1.29719 64.5,-0.5 Z"/></g>
<g><path style="opacity:1" fill="#6e6e6e" d="M 84.5,49.5 C 86.337,49.6395 86.6704,50.3061 85.5,51.5C 84.7025,51.0431 84.3691,50.3764 84.5,49.5 Z"/></g>
<g><path style="opacity:1" fill="#3373f6" d="M 74.5,58.5 C 75.8221,58.33 76.9887,58.6634 78,59.5C 78.5787,63.2027 78.412,66.8694 77.5,70.5C 75.8762,70.6399 74.7096,69.9733 74,68.5C 73.2534,65.0764 73.42,61.7431 74.5,58.5 Z"/></g>
<g><path style="opacity:1" fill="#367ff6" d="M 111.5,75.5 C 111.828,70.1254 111.495,64.7921 110.5,59.5C 109.833,64.1667 109.167,68.8333 108.5,73.5C 107.893,73.3764 107.56,73.0431 107.5,72.5C 108.486,68.03 108.819,63.3633 108.5,58.5C 109.833,58.5 111.167,58.5 112.5,58.5C 112.822,64.358 112.489,70.0247 111.5,75.5 Z"/></g>
<g><path style="opacity:1" fill="#1e6bf8" d="M 34.5,75.5 C 35.1143,79.1352 35.4476,82.8019 35.5,86.5C 35.6401,92.5362 35.3068,98.5362 34.5,104.5C 33.5,104.5 32.5,104.5 31.5,104.5C 31.5,99.8333 31.5,95.1667 31.5,90.5C 31.8174,87.4281 31.4841,84.4281 30.5,81.5C 29.2011,82.09 28.3678,83.09 28,84.5C 27.5008,89.1548 27.3342,93.8215 27.5,98.5C 26.5386,100.265 26.2053,102.265 26.5,104.5C 25.5,104.5 24.5,104.5 23.5,104.5C 23.6664,96.8261 23.4997,89.1594 23,81.5C 20.7912,84.789 19.9579,88.4557 20.5,92.5C 19.5166,96.2984 19.1832,100.298 19.5,104.5C 18.5,104.5 17.5,104.5 16.5,104.5C 16.5,102.167 16.5,99.8333 16.5,97.5C 16.7823,89.1641 17.1156,80.8308 17.5,72.5C 19.8273,72.7529 21.8273,72.0863 23.5,70.5C 24.8139,71.3128 25.9805,72.3128 27,73.5C 30.8072,69.1573 33.3072,69.824 34.5,75.5 Z"/></g>
<g><path style="opacity:1" fill="#4e8cf1" d="M 64.5,80.5 C 63.5151,84.6344 63.1818,88.9677 63.5,93.5C 62.1834,87.6544 62.1834,81.6544 63.5,75.5C 64.4519,77.0453 64.7852,78.712 64.5,80.5 Z"/></g>
<g><path style="opacity:1" fill="#226ef9" d="M 111.5,75.5 C 111.666,85.1724 111.5,94.8391 111,104.5C 103.878,108.632 100.045,106.632 99.5,98.5C 99.5,92.5 99.5,86.5 99.5,80.5C 99.523,78.0733 100.023,75.74 101,73.5C 102.965,70.2081 105.131,69.8748 107.5,72.5C 107.56,73.0431 107.893,73.3764 108.5,73.5C 109.167,68.8333 109.833,64.1667 110.5,59.5C 111.495,64.7921 111.828,70.1254 111.5,75.5 Z"/></g>
<g><path style="opacity:1" fill="#669aef" d="M 76.5,72.5 C 77.1667,72.5 77.8333,72.5 78.5,72.5C 78.5,75.5 78.5,78.5 78.5,81.5C 77.8333,82.5 77.1667,83.5 76.5,84.5C 76.5,80.5 76.5,76.5 76.5,72.5 Z"/></g>
<g><path style="opacity:1" fill="#fafbfc" d="M 83.5,82.5 C 84.7943,84.0478 85.4609,86.0478 85.5,88.5C 85.44,90.9212 85.1066,93.2545 84.5,95.5C 83.5318,93.3926 83.1984,91.0593 83.5,88.5C 83.5,86.5 83.5,84.5 83.5,82.5 Z"/></g>
<g><path style="opacity:1" fill="#e0eafa" d="M 103.5,81.5 C 104.822,81.33 105.989,81.6634 107,82.5C 107.791,86.9255 107.457,91.2589 106,95.5C 105.586,95.9574 105.086,96.2907 104.5,96.5C 102.187,91.7064 101.854,86.7064 103.5,81.5 Z"/></g>
<g><path style="opacity:1" fill="#dce8f9" d="M 71.5,72.5 C 72.1667,72.8333 72.8333,73.1667 73.5,73.5C 73.5,76.5 73.5,79.5 73.5,82.5C 72.5084,89.6476 72.175,96.9809 72.5,104.5C 71.8333,104.167 71.1667,103.833 70.5,103.5C 70.8749,93.1683 71.2082,82.835 71.5,72.5 Z"/></g>
<g><path style="opacity:1" fill="#9ab9f4" d="M 39.5,72.5 C 38.5,72.5 37.5,72.5 36.5,72.5C 36.6865,77.8446 37.0199,83.1779 37.5,88.5C 36.8333,87.8333 36.1667,87.1667 35.5,86.5C 35.4476,82.8019 35.1143,79.1352 34.5,75.5C 35.4345,74.4324 35.7678,73.099 35.5,71.5C 37.099,71.2322 38.4324,71.5655 39.5,72.5 Z"/></g>
<g><path style="opacity:1" fill="#e1ebfa" d="M 64.5,80.5 C 64.3398,82.1992 64.5065,83.8659 65,85.5C 68.0458,89.0117 68.0458,92.6783 65,96.5C 63.9614,95.7562 63.4614,94.7562 63.5,93.5C 63.1818,88.9677 63.5151,84.6344 64.5,80.5 Z"/></g>
<g><path style="opacity:1" fill="#80aef4" d="M 83.5,62.5 C 84.4118,67.6012 85.7452,72.6012 87.5,77.5C 86.6136,84.4567 86.2803,91.4567 86.5,98.5C 86.1667,98.5 85.8333,98.5 85.5,98.5C 85.7373,97.209 85.404,96.209 84.5,95.5C 85.1066,93.2545 85.44,90.9212 85.5,88.5C 85.4609,86.0478 84.7943,84.0478 83.5,82.5C 84.4633,80.6673 85.13,78.6673 85.5,76.5C 84.0533,71.9356 83.3866,67.2689 83.5,62.5 Z"/></g>
<g><path style="opacity:1" fill="#adc8f4" d="M 59.5,84.5 C 59.5,89.1667 59.5,93.8333 59.5,98.5C 58.8333,98.5 58.1667,98.5 57.5,98.5C 57.5,95.1667 57.5,91.8333 57.5,88.5C 58.1667,87.1667 58.8333,85.8333 59.5,84.5 Z"/></g>
<g><path style="opacity:1" fill="#3f84ef" d="M 97.5,79.5 C 98.1667,79.8333 98.8333,80.1667 99.5,80.5C 99.5,86.5 99.5,92.5 99.5,98.5C 98.8365,96.9581 98.1698,95.2914 97.5,93.5C 96.7025,93.9569 96.3691,94.6236 96.5,95.5C 95.8333,95.1667 95.1667,94.8333 94.5,94.5C 94.5,93.8333 94.5,93.1667 94.5,92.5C 95.5,92.5 96.5,92.5 97.5,92.5C 97.5,88.1667 97.5,83.8333 97.5,79.5 Z"/></g>
<g><path style="opacity:1" fill="#0461f9" d="M 76.5,72.5 C 76.5,76.5 76.5,80.5 76.5,84.5C 76.5,87.1667 76.5,89.8333 76.5,92.5C 75.8337,96.3525 75.167,100.353 74.5,104.5C 73.5027,97.1968 73.1694,89.8635 73.5,82.5C 73.5,79.5 73.5,76.5 73.5,73.5C 74.209,72.596 75.209,72.2627 76.5,72.5 Z"/></g>
<g><path style="opacity:1" fill="#ccdcf4" d="M 94.5,92.5 C 94.5,93.1667 94.5,93.8333 94.5,94.5C 91.9493,97.2301 90.616,96.5634 90.5,92.5C 91.8333,92.5 93.1667,92.5 94.5,92.5 Z"/></g>
<g><path style="opacity:1" fill="#0967f9" d="M 83.5,62.5 C 83.3866,67.2689 84.0533,71.9356 85.5,76.5C 85.13,78.6673 84.4633,80.6673 83.5,82.5C 83.5,84.5 83.5,86.5 83.5,88.5C 82.8442,89.6216 82.5108,90.9549 82.5,92.5C 83.8861,96.7342 84.5528,101.068 84.5,105.5C 82.549,105.773 81.049,105.107 80,103.5C 79.8288,95.9885 79.3288,88.6552 78.5,81.5C 78.5,78.5 78.5,75.5 78.5,72.5C 80.4023,69.6627 81.069,66.3293 80.5,62.5C 81.5,62.5 82.5,62.5 83.5,62.5 Z"/></g>
<g><path style="opacity:1" fill="#116df7" d="M 97.5,79.5 C 97.5,83.8333 97.5,88.1667 97.5,92.5C 96.5,92.5 95.5,92.5 94.5,92.5C 93.1667,92.5 91.8333,92.5 90.5,92.5C 90.616,96.5634 91.9493,97.2301 94.5,94.5C 95.1667,94.8333 95.8333,95.1667 96.5,95.5C 97.3897,97.7819 97.5564,100.115 97,102.5C 91.4281,108.215 87.9281,106.881 86.5,98.5C 86.2803,91.4567 86.6136,84.4567 87.5,77.5C 87.6964,74.3015 89.3631,72.3015 92.5,71.5C 96.5912,72.6007 98.2579,75.2674 97.5,79.5 Z"/></g>
<g><path style="opacity:1" fill="#b4cdf4" d="M 91.5,80.5 C 93.9118,80.6941 94.9118,82.0274 94.5,84.5C 93.1667,84.5 91.8333,84.5 90.5,84.5C 90.4326,83.0413 90.7659,81.7079 91.5,80.5 Z"/></g>
<g><path style="opacity:1" fill="#88b4f5" d="M 31.5,90.5 C 31.5,95.1667 31.5,99.8333 31.5,104.5C 32.5,104.5 33.5,104.5 34.5,104.5C 33.4324,105.434 32.099,105.768 30.5,105.5C 30.1795,100.305 30.5128,95.3054 31.5,90.5 Z"/></g>
<g><path style="opacity:1" fill="#82acf3" d="M 20.5,92.5 C 20.5,96.8333 20.5,101.167 20.5,105.5C 18.8333,105.5 17.1667,105.5 15.5,105.5C 15.1936,102.615 15.5269,99.9479 16.5,97.5C 16.5,99.8333 16.5,102.167 16.5,104.5C 17.5,104.5 18.5,104.5 19.5,104.5C 19.1832,100.298 19.5166,96.2984 20.5,92.5 Z"/></g>
<g><path style="opacity:1" fill="#1c6bf8" d="M 57.5,88.5 C 57.5,91.8333 57.5,95.1667 57.5,98.5C 57.9366,103.877 55.6033,106.377 50.5,106C 47.0071,102.059 46.6737,97.8922 49.5,93.5C 50.2807,94.7366 51.2807,95.7366 52.5,96.5C 52.8333,96 53.1667,95.5 53.5,95C 50.6309,92.4269 48.9642,89.2603 48.5,85.5C 48.4085,78.9925 47.7418,78.9925 46.5,85.5C 44.3937,95.8026 42.3937,106.136 40.5,116.5C 39.1667,116.5 37.8333,116.5 36.5,116.5C 38.471,107.215 38.8044,97.8818 37.5,88.5C 37.0199,83.1779 36.6865,77.8446 36.5,72.5C 37.5,72.5 38.5,72.5 39.5,72.5C 40.3439,76.0991 40.6773,79.7657 40.5,83.5C 40.2011,85.604 40.5344,87.604 41.5,89.5C 42.4287,88.3112 42.762,86.9778 42.5,85.5C 43.2745,81.186 43.9412,76.8526 44.5,72.5C 46.451,72.2267 47.951,72.8934 49,74.5C 51.7065,71.0221 54.7065,70.6888 58,73.5C 58.6015,76.6622 58.1015,79.6622 56.5,82.5C 55.5,81.8333 54.5,81.1667 53.5,80.5C 53.1667,81 52.8333,81.5 52.5,82C 54.7646,83.7574 56.4313,85.9241 57.5,88.5 Z"/></g>
<g><path style="opacity:1" fill="#75a5f1" d="M 40.5,83.5 C 41.1667,84.1667 41.8333,84.8333 42.5,85.5C 42.762,86.9778 42.4287,88.3112 41.5,89.5C 40.5344,87.604 40.2011,85.604 40.5,83.5 Z"/></g>
<g><path style="opacity:1" fill="#a7c7f4" d="M 48.5,85.5 C 47.8333,85.5 47.1667,85.5 46.5,85.5C 47.7418,78.9925 48.4085,78.9925 48.5,85.5 Z"/></g>
<g><path style="opacity:1" fill="#4c8bf6" d="M 73.5,82.5 C 73.1694,89.8635 73.5027,97.1968 74.5,104.5C 75.167,100.353 75.8337,96.3525 76.5,92.5C 76.5,96.8333 76.5,101.167 76.5,105.5C 74.901,105.768 73.5676,105.434 72.5,104.5C 72.175,96.9809 72.5084,89.6476 73.5,82.5 Z"/></g>
<g><path style="opacity:1" fill="#4c88ef" d="M 83.5,88.5 C 83.1984,91.0593 83.5318,93.3926 84.5,95.5C 85.404,96.209 85.7373,97.209 85.5,98.5C 85.8016,101.059 85.4682,103.393 84.5,105.5C 84.5528,101.068 83.8861,96.7342 82.5,92.5C 82.5108,90.9549 82.8442,89.6216 83.5,88.5 Z"/></g>
<g><path style="opacity:1" fill="#5b92f0" d="M 27.5,98.5 C 27.5,100.833 27.5,103.167 27.5,105.5C 25.901,105.768 24.5676,105.434 23.5,104.5C 24.5,104.5 25.5,104.5 26.5,104.5C 26.2053,102.265 26.5386,100.265 27.5,98.5 Z"/></g>
</svg>
